<svg width="20" height="20" viewBox="0 0 20 20" fill="none" xmlns="http://www.w3.org/2000/svg">
<g clip-path="url(#clip0_1266_3002)">
<path d="M13.3333 13.3334L10 10M10 10L6.66667 13.3334M10 10V17.5M16.9917 15.325C17.8044 14.8819 18.4465 14.1808 18.8166 13.3322C19.1866 12.4837 19.2635 11.5361 19.0352 10.6389C18.8068 9.74182 18.2862 8.94629 17.5556 8.3779C16.8249 7.80951 15.9257 7.50064 15 7.50003H13.95C13.6978 6.52439 13.2276 5.61864 12.575 4.85085C11.9223 4.08307 11.104 3.47324 10.1817 3.0672C9.25946 2.66116 8.25712 2.46949 7.2501 2.5066C6.24307 2.5437 5.25755 2.80861 4.36765 3.28142C3.47774 3.75422 2.70659 4.42261 2.11218 5.23635C1.51777 6.05008 1.11557 6.98797 0.935814 7.97952C0.756055 8.97107 0.803418 9.99047 1.07434 10.9611C1.34527 11.9317 1.8327 12.8282 2.5 13.5834" stroke="#344054" stroke-width="1.67" stroke-linecap="round" stroke-linejoin="round"/>
</g>
<defs>
<clipPath id="clip0_1266_3002">
<rect width="20" height="20" fill="white"/>
</clipPath>
</defs>
</svg>
